<svg width="64" height="64" viewBox="0 0 64 64" fill="none" xmlns="http://www.w3.org/2000/svg">
<g id="status">
<path id="Vector" d="M27.4393 10.2935L4.85266 48.0002C4.38697 48.8066 4.14057 49.721 4.13796 50.6522C4.13535 51.5835 4.37663 52.4992 4.83779 53.3082C5.29896 54.1173 5.96392 54.7915 6.76654 55.2638C7.56916 55.7361 8.48146 55.9899 9.41266 56.0002H54.586C55.5172 55.9899 56.4295 55.7361 57.2321 55.2638C58.0347 54.7915 58.6997 54.1173 59.1609 53.3082C59.622 52.4992 59.8633 51.5835 59.8607 50.6522C59.8581 49.721 59.6117 48.8066 59.146 48.0002L36.5593 10.2935C36.0839 9.5098 35.4146 8.86183 34.6158 8.41214C33.8171 7.96244 32.916 7.7262 31.9993 7.7262C31.0827 7.7262 30.1815 7.96244 29.3828 8.41214C28.5841 8.86183 27.9147 9.5098 27.4393 10.2935V10.2935Z" stroke="#FD4040" stroke-width="4" stroke-linecap="round" stroke-linejoin="round"/>
<path id="Vector_2" d="M32 24V34.6667" stroke="#FD4040" stroke-width="4" stroke-linecap="round" stroke-linejoin="round"/>
<path id="Vector_3" d="M32 45.3333H32.0267" stroke="#FD4040" stroke-width="4" stroke-linecap="round" stroke-linejoin="round"/>
</g>
</svg>
